%FSLAX23Y23*%
%MOIN*%
G04 EasyPC Gerber Version 18.0.1 Build 3581 *
%ADD86R,0.03000X0.05300*%
%ADD14C,0.00500*%
%ADD29C,0.01500*%
%ADD71C,0.06000*%
%ADD95R,0.06378X0.02638*%
X0Y0D02*
D02*
D14*
X870Y650D02*
G75*
G02X945Y575J-75D01*
G01*
Y100*
G75*
G02X870Y25I-75*
G01*
X220*
G75*
G02X145Y100J75*
G01*
Y575*
G75*
G02X220Y650I75*
G01*
X870*
D02*
D71*
X245Y195D03*
Y295D03*
Y395D03*
Y495D03*
X845Y200D03*
Y300D03*
Y400D03*
Y500D03*
D02*
D29*
X245Y195D02*
Y220D01*
X295Y270*
X427*
X432Y275*
X245Y495D02*
X275D01*
X345Y425*
X432*
Y325D02*
X282D01*
X252Y295*
X245*
X432Y375D02*
X305D01*
X285Y395*
X245*
X441Y150D02*
Y196D01*
X485Y240*
Y350*
X455Y380*
X437*
X432Y375*
X509Y150D02*
Y105D01*
X535Y80*
X350*
X325Y105*
Y225*
X335Y235*
X400*
X427Y262*
Y275*
X432*
X615Y150D02*
Y255D01*
X585Y285*
Y416*
X576Y425*
X432*
X678Y325D02*
X820D01*
X845Y300*
X678Y375D02*
X820D01*
X845Y400*
X684Y150D02*
Y115D01*
X649Y80*
X535*
X845Y200D02*
Y230D01*
X800Y275*
X678*
X845Y500D02*
X810D01*
X735Y425*
X678*
D02*
D86*
X441Y150D03*
X509D03*
X615D03*
X684D03*
D02*
D95*
X432Y275D03*
Y325D03*
Y375D03*
Y425D03*
X678Y275D03*
Y325D03*
Y375D03*
Y425D03*
X0Y0D02*
M02*
