%FSLAX23Y23*%
%MOIN*%
G04 EasyPC Gerber Version 18.0.1 Build 3581 *
%ADD16C,0.00100*%
%ADD14C,0.00500*%
X0Y0D02*
D02*
D14*
X870Y650D02*
G75*
G02X945Y575J-75D01*
G01*
Y100*
G75*
G02X870Y25I-75*
G01*
X220*
G75*
G02X145Y100J75*
G01*
Y575*
G75*
G02X220Y650I75*
G01*
X870*
D02*
D16*
X915Y583D02*
X913Y579D01*
X908Y577*
X900*
X895Y579*
X893Y583*
X895Y588*
X900Y590*
X908*
X913Y592*
X915Y596*
X913Y601*
X908Y603*
X900*
X895Y601*
X893Y596*
X880Y585D02*
Y594D01*
X878Y598*
X876Y601*
X871Y603*
X867*
X863Y601*
X860Y598*
X858Y594*
Y585*
X860Y581*
X863Y579*
X867Y577*
X871*
X876Y579*
X878Y581*
X880Y585*
X838Y577D02*
X830D01*
X834D02*
Y603D01*
X838D02*
X830D01*
X788Y581D02*
X790Y579D01*
X795Y577*
X801*
X806Y579*
X808Y581*
X810Y585*
Y594*
X808Y598*
X806Y601*
X801Y603*
X795*
X790Y601*
X788Y598*
X775Y585D02*
X758D01*
X733Y590D02*
X729D01*
X725Y592*
X723Y596*
X725Y601*
X729Y603*
X733*
X738Y601*
X740Y596*
X738Y592*
X733Y590*
X738Y588*
X740Y583*
X738Y579*
X733Y577*
X729*
X725Y579*
X723Y583*
X725Y588*
X729Y590*
X670Y603D02*
X659Y577D01*
X648Y603*
X618Y579D02*
X620Y577D01*
X624*
X628*
X633Y579*
X635Y583*
Y590*
X633Y592*
X628Y594*
X624*
X620Y592*
X618Y590*
Y588*
X620Y585*
X624Y583*
X628*
X633Y585*
X635Y588*
X600Y577D02*
Y594D01*
Y588D02*
X598Y592D01*
X593Y594*
X589*
X585Y592*
X565Y579D02*
X561Y577D01*
X552*
X548Y579*
Y583*
X552Y585*
X561*
X565Y588*
Y592*
X561Y594*
X552*
X548Y592*
X521Y577D02*
Y594D01*
Y601D02*
X495Y583*
X493Y579D01*
X488Y577*
X484*
X480Y579*
X477Y583*
Y588*
X480Y592*
X484Y594*
X488*
X493Y592*
X495Y588*
Y583*
X460Y577D02*
Y594D01*
Y588D02*
X458Y592D01*
X453Y594*
X449*
X445Y592*
X443Y588*
Y577*
X920Y87D02*
Y104D01*
Y102D02*
X918Y104D01*
X913*
X911Y102*
Y95*
Y102D02*
X909Y104D01*
X905*
X903Y102*
Y87*
X885Y102D02*
X881Y104D01*
X874*
X870Y102*
X868Y98*
Y91*
X870Y89*
X874Y87*
X878*
X883Y89*
X885Y91*
Y93*
X883Y95*
X878Y98*
X874*
X870Y95*
X868Y93*
Y91D02*
Y87D01*
X850D02*
X833Y104D01*
Y87D02*
X850Y104D01*
X815Y89D02*
X811Y87D01*
X802*
X798Y89*
Y93*
X802Y95*
X811*
X815Y98*
Y102*
X811Y104*
X802*
X798Y102*
X771Y87D02*
Y104D01*
Y111D02*
X728Y98*
X730Y102D01*
X734Y104*
X738*
X743Y102*
X745Y98*
Y95*
X743Y91*
X738Y89*
X734*
X730Y91*
X728Y95*
Y104D02*
Y87D01*
X730Y82*
X734Y80*
X741*
X745Y82*
X710Y87D02*
Y104D01*
Y98D02*
X708Y102D01*
X703Y104*
X699*
X695Y102*
X666Y87D02*
Y104D01*
Y111D02*
X640Y89*
X636Y87D01*
X627*
X623Y89*
Y93*
X627Y95*
X636*
X640Y98*
Y102*
X636Y104*
X627*
X623Y102*
X601Y104D02*
X592D01*
X596Y108D02*
Y89D01*
X594Y87*
X592*
X590Y89*
X550D02*
X555Y87D01*
X563*
X568Y89*
X570Y93*
Y106*
X568Y111*
X563Y113*
X557*
X553Y111*
X550Y106*
Y95*
X553Y93*
X555Y95*
Y104*
X557Y106*
X563*
X566Y104*
Y95*
X563Y93*
X557*
X555Y95*
X535Y104D02*
Y93D01*
X533Y89*
X528Y87*
X524*
X520Y89*
X518Y93*
Y104D02*
Y87D01*
X496Y104D02*
X487D01*
X491Y108D02*
Y89D01*
X489Y87*
X487*
X485Y89*
X448D02*
X450Y87D01*
X454*
X458*
X463Y89*
X465Y93*
Y100*
X463Y102*
X458Y104*
X454*
X450Y102*
X448Y100*
Y98*
X450Y95*
X454Y93*
X458*
X463Y95*
X465Y98*
X430Y87D02*
X413Y104D01*
Y87D02*
X430Y104D01*
X395Y102D02*
X391Y104D01*
X384*
X380Y102*
X378Y98*
Y91*
X380Y89*
X384Y87*
X388*
X393Y89*
X395Y91*
Y93*
X393Y95*
X388Y98*
X384*
X380Y95*
X378Y93*
Y91D02*
Y87D01*
X360Y89D02*
X356Y87D01*
X347*
X343Y89*
Y93*
X347Y95*
X356*
X360Y98*
Y102*
X356Y104*
X347*
X343Y102*
X323Y87D02*
X321Y89D01*
X323Y91*
X325Y89*
X323Y87*
X273Y89D02*
X275Y87D01*
X279*
X283*
X288Y89*
X290Y93*
Y100*
X288Y102*
X283Y104*
X279*
X275Y102*
X273Y100*
Y98*
X275Y95*
X279Y93*
X283*
X288Y95*
X290Y98*
X238D02*
X240Y102D01*
X244Y104*
X248*
X253Y102*
X255Y98*
Y93*
X253Y89*
X248Y87*
X244*
X240Y89*
X238Y93*
Y87D02*
Y113D01*
X220Y104D02*
Y93D01*
X218Y89*
X213Y87*
X209*
X205Y89*
X203Y93*
Y104D02*
Y87D01*
X920Y132D02*
Y158D01*
X909Y145*
X898Y158*
Y132*
X885Y147D02*
X881Y149D01*
X874*
X870Y147*
X868Y142*
Y136*
X870Y134*
X874Y132*
X878*
X883Y134*
X885Y136*
Y138*
X883Y140*
X878Y142*
X874*
X870Y140*
X868Y138*
Y136D02*
Y132D01*
X850D02*
X833Y149D01*
Y132D02*
X850Y149D01*
X780Y138D02*
X778Y134D01*
X773Y132*
X765*
X760Y134*
X758Y138*
X760Y142*
X765Y145*
X773*
X778Y147*
X780Y151*
X778Y156*
X773Y158*
X765*
X760Y156*
X758Y151*
X736Y132D02*
Y149D01*
Y156D02*
X693Y142*
X695Y147D01*
X699Y149*
X703*
X708Y147*
X710Y142*
Y140*
X708Y136*
X703Y134*
X699*
X695Y136*
X693Y140*
Y149D02*
Y132D01*
X695Y127*
X699Y125*
X706*
X710Y127*
X675Y132D02*
Y149D01*
Y142D02*
X673Y147D01*
X668Y149*
X664*
X660Y147*
X631Y132D02*
Y149D01*
Y156D02*
X605Y134*
X601Y132D01*
X592*
X588Y134*
Y138*
X592Y140*
X601*
X605Y142*
Y147*
X601Y149*
X592*
X588Y147*
X566Y149D02*
X557D01*
X561Y153D02*
Y134D01*
X559Y132*
X557*
X555Y134*
X0Y0D02*
M02*
