%FSLAX23Y23*%
%MOIN*%
G04 EasyPC Gerber Version 18.0.1 Build 3581 *
%ADD14C,0.00500*%
%ADD15C,0.01000*%
%ADD71C,0.06000*%
X0Y0D02*
D02*
D14*
X170Y575D02*
Y100D01*
G75*
G03X220Y50I50*
G01*
X870*
G75*
G03X920Y100J50*
G01*
Y575*
G75*
G03X870Y625I-50*
G01*
X220*
G75*
G03X170Y575J-50*
G01*
X245Y238D02*
G75*
G02Y153J-43D01*
G01*
G75*
G02Y238J43*
G01*
Y338D02*
G75*
G02Y253J-43D01*
G01*
G75*
G02Y338J43*
G01*
Y438D02*
G75*
G02Y353J-43D01*
G01*
G75*
G02Y438J43*
G01*
Y538D02*
G75*
G02Y453J-43D01*
G01*
G75*
G02Y538J43*
G01*
X845Y158D02*
G75*
G02Y243J43D01*
G01*
G75*
G02Y158J-43*
G01*
Y258D02*
G75*
G02Y343J43D01*
G01*
G75*
G02Y258J-43*
G01*
Y358D02*
G75*
G02Y443J43D01*
G01*
G75*
G02Y358J-43*
G01*
Y458D02*
G75*
G02Y543J43D01*
G01*
G75*
G02Y458J-43*
G01*
X170Y195D02*
G36*
Y100D01*
G75*
G03X220Y50I50*
G01*
X870*
G75*
G03X920Y100J50*
G01*
Y195*
X887*
G75*
G02X845Y158I-42J5*
G01*
G75*
G02X803Y195J43*
G01*
X288*
G75*
G02X245Y153I-43*
G01*
G75*
G02X203Y195J43*
G01*
X170*
G37*
X203D02*
G36*
G75*
G02X245Y238I43D01*
G01*
G75*
G02X288Y195J-43*
G01*
X803*
G75*
G02X845Y243I42J5*
G01*
G75*
G02X887Y195J-43*
G01*
X920*
Y295*
X887*
G75*
G02X845Y258I-42J5*
G01*
G75*
G02X803Y295J43*
G01*
X288*
G75*
G02X245Y253I-43*
G01*
G75*
G02X203Y295J43*
G01*
X170*
Y195*
X203*
G37*
Y295D02*
G36*
G75*
G02X245Y338I43D01*
G01*
G75*
G02X288Y295J-43*
G01*
X803*
G75*
G02X845Y343I42J5*
G01*
G75*
G02X887Y295J-43*
G01*
X920*
Y395*
X887*
G75*
G02X845Y358I-42J5*
G01*
G75*
G02X803Y395J43*
G01*
X288*
G75*
G02X245Y353I-43*
G01*
G75*
G02X203Y395J43*
G01*
X170*
Y295*
X203*
G37*
Y395D02*
G36*
G75*
G02X245Y438I43D01*
G01*
G75*
G02X288Y395J-43*
G01*
X803*
G75*
G02X845Y443I42J5*
G01*
G75*
G02X887Y395J-43*
G01*
X920*
Y495*
X887*
G75*
G02X845Y458I-42J5*
G01*
G75*
G02X803Y495J43*
G01*
X288*
G75*
G02X245Y453I-43*
G01*
G75*
G02X203Y495J43*
G01*
X170*
Y395*
X203*
G37*
Y495D02*
G36*
G75*
G02X245Y538I43D01*
G01*
G75*
G02X288Y495J-43*
G01*
X803*
G75*
G02X845Y543I42J5*
G01*
G75*
G02X887Y495J-43*
G01*
X920*
Y575*
G75*
G03X870Y625I-50*
G01*
X220*
G75*
G03X170Y575J-50*
G01*
Y495*
X203*
G37*
X870Y650D02*
G75*
G02X945Y575J-75D01*
G01*
Y100*
G75*
G02X870Y25I-75*
G01*
X220*
G75*
G02X145Y100J75*
G01*
Y575*
G75*
G02X220Y650I75*
G01*
X870*
D02*
D15*
X220Y195D02*
X200D01*
X245Y170D02*
Y150D01*
Y220D02*
Y240D01*
X270Y195D02*
X290D01*
D02*
D71*
X245D03*
Y295D03*
Y395D03*
Y495D03*
X845Y200D03*
Y300D03*
Y400D03*
Y500D03*
X0Y0D02*
M02*
